<svg version="1.1" id="Layer_1" xmlns="http://www.w3.org/2000/svg" xmlns:xlink="http://www.w3.org/1999/xlink" x="0px" y="0px"
	 width="100%" viewBox="0 0 462 101" enable-background="new 0 0 462 101" xml:space="preserve">
<path fill="#000000" opacity="1.000000" stroke="none" 
	d="
M456.000000,0.999998 
	C458.332367,1.000000 460.664734,1.000000 462.997803,1.000000 
	C462.998535,34.651791 462.998535,68.303581 462.998535,101.977684 
	C309.078522,101.977684 155.157028,101.977684 1.117773,101.977684 
	C1.117773,68.426125 1.117773,34.851707 1.117773,1.000000 
	C129.687424,1.000000 258.375061,1.000000 387.636169,1.369594 
	C387.465088,3.390985 386.588074,4.996872 385.996826,6.701854 
	C381.332123,20.152527 381.054901,33.873741 384.053345,47.648174 
	C388.310608,67.205376 397.657379,83.574600 414.453400,95.222588 
	C422.290436,100.657555 421.024597,100.692741 429.858765,94.462402 
	C445.105865,83.709343 453.988281,68.312210 458.525482,50.567814 
	C461.097107,40.510384 462.381470,30.089544 460.080414,19.640766 
	C458.712463,13.428897 457.359650,7.213696 456.000000,0.999998 
M239.000000,24.500141 
	C239.000000,17.422085 239.000000,10.344028 239.000000,3.492694 
	C160.373367,3.492694 82.677147,3.492694 4.980934,3.492694 
	C85.779739,11.785057 163.698563,31.098635 239.000000,63.288589 
	C239.000000,50.118107 239.000000,37.809086 239.000000,24.500141 
M356.503357,29.004000 
	C352.430145,29.004000 348.356964,29.004000 343.732666,29.004000 
	C343.732666,19.850172 343.732666,11.609157 343.732666,3.375362 
	C329.266022,3.375362 315.375580,3.375362 300.917572,3.375362 
	C300.917572,11.971432 300.917572,20.211416 300.917572,29.180656 
	C291.669525,29.180656 282.971558,29.180656 274.420135,29.180656 
	C274.420135,43.825397 274.420135,57.717312 274.420135,72.171539 
	C283.397064,72.171539 291.972107,72.171539 301.092804,72.171539 
	C301.092804,81.303909 301.092804,89.874298 301.092804,98.535522 
	C315.678040,98.535522 329.686005,98.535522 344.260254,98.535522 
	C344.260254,89.508865 344.260254,80.938232 344.260254,71.818085 
	C353.062866,71.818085 361.299988,71.818085 369.667328,71.818085 
	C369.667328,57.353214 369.667328,43.463249 369.667328,29.004004 
	C365.401398,29.004004 361.448395,29.004004 356.503357,29.004000 
M50.000000,87.400703 
	C50.000000,75.112900 50.000000,62.825096 50.000000,50.692837 
	C52.412003,50.043362 54.218159,49.557022 56.024315,49.070683 
	C55.928143,48.574196 55.831966,48.077705 55.735794,47.581219 
	C48.253960,47.581219 40.772121,47.581219 33.290287,47.581219 
	C33.182148,48.040333 33.074013,48.499447 32.965878,48.958561 
	C34.876110,49.544708 36.786346,50.130856 38.593822,50.685474 
	C38.593822,57.458344 38.593822,64.026985 38.593822,70.626053 
	C32.612846,70.626053 27.043875,70.626053 21.314602,70.626053 
	C21.314602,63.668221 21.314602,57.086891 21.314602,50.783539 
	C23.504942,50.022888 25.275444,49.408039 27.045948,48.793190 
	C26.890430,48.383335 26.734915,47.973476 26.579399,47.563622 
	C19.137529,47.563622 11.695659,47.563622 4.253789,47.563622 
	C4.175601,48.056061 4.097412,48.548500 4.019223,49.040939 
	C5.801881,49.542439 7.584540,50.043941 9.608868,50.613426 
	C9.608868,65.229240 9.608868,79.940651 9.608868,94.610008 
	C8.735147,94.773911 8.187901,94.755371 7.768729,94.977989 
	C6.526471,95.637726 5.334720,96.392563 4.123218,97.110207 
	C5.408210,97.739334 6.672325,98.855019 7.981899,98.911209 
	C12.972029,99.125320 17.982111,99.123360 22.972588,98.913399 
	C24.295996,98.857719 25.575972,97.769821 26.875891,97.155876 
	C25.679857,96.424324 24.511097,95.641426 23.275164,94.985001 
	C22.735863,94.698555 22.058931,94.671234 21.323612,94.497704 
	C21.323612,87.728111 21.323612,81.155014 21.323612,74.468140 
	C27.344074,74.468140 33.029938,74.468140 38.588882,74.468140 
	C38.588882,81.521294 38.588882,88.099907 38.588882,94.620674 
	C37.694424,94.783165 37.142536,94.756798 36.727917,94.982552 
	C35.497616,95.652412 34.321396,96.421608 33.124035,97.151962 
	C34.422672,97.767212 35.691563,98.823029 37.025665,98.913094 
	C40.675243,99.159508 44.363171,99.172012 48.014782,98.941872 
	C50.637554,98.776573 55.172581,98.615173 55.480858,97.510521 
	C56.594666,93.519447 52.356796,95.824707 50.789043,94.646835 
	C50.661419,94.550949 50.577229,94.397255 50.000019,93.695854 
	C50.000019,92.305984 50.000019,90.337166 50.000000,87.400703 
M122.999451,70.747597 
	C122.999451,78.697418 122.999451,86.647247 122.999451,94.597069 
	C122.601624,94.398949 122.203789,94.200829 121.805962,94.002708 
	C120.579956,95.149399 119.353943,96.296089 118.127937,97.442780 
	C119.685745,97.961678 121.239342,98.915604 122.802025,98.930733 
	C135.461365,99.053322 148.122406,98.999786 160.782928,98.999931 
	C162.709030,98.999954 164.635132,98.999931 166.476807,98.999931 
	C166.476807,93.559380 166.476807,88.914070 166.476807,84.268761 
	C166.065414,83.940247 165.654037,83.611740 165.242645,83.283234 
	C163.406143,90.690041 160.550293,96.656898 151.432495,94.474487 
	C157.097031,84.041512 162.607162,73.892906 168.327988,63.356224 
	C158.341812,63.356224 149.422958,63.356224 140.459045,63.356224 
	C140.459045,67.717262 140.459045,71.714409 140.459045,75.711548 
	C140.857254,75.855896 141.255463,76.000237 141.653656,76.144585 
	C143.057755,73.643501 144.173279,70.912216 145.938599,68.699280 
	C148.171768,65.899849 151.301041,65.363823 154.985367,66.614624 
	C149.414078,76.754105 144.037323,86.539520 138.899033,95.890976 
	C136.754486,95.336372 135.085266,94.904694 132.755676,94.302231 
	C132.755676,83.682220 132.755676,72.978928 132.755676,62.176022 
	C127.423477,62.653336 122.810539,63.066261 117.888237,63.506882 
	C118.801270,66.882179 124.551353,65.329094 122.999451,70.747597 
M221.250015,95.061760 
	C220.170334,94.007828 218.314026,93.056061 218.159393,91.880455 
	C217.728561,88.605194 217.862610,85.229622 218.038086,81.907639 
	C218.228775,78.297882 218.030746,74.429916 219.319565,71.200249 
	C220.164536,69.082909 223.347427,67.898552 225.483246,66.296341 
	C226.655090,68.488007 228.656067,70.613335 228.837753,72.884239 
	C229.314529,78.842712 229.169312,84.873016 228.876022,90.855293 
	C228.804016,92.324287 227.192993,93.704857 226.336121,95.153633 
	C225.884506,95.917259 225.257721,96.735725 225.244247,97.538406 
	C225.236618,97.992584 226.301697,98.853981 226.899033,98.867859 
	C231.892624,98.983826 236.891479,99.009743 241.883881,98.878082 
	C242.562073,98.860191 243.665024,97.880142 243.749908,97.237152 
	C243.834763,96.594498 243.039841,95.547203 242.357178,95.162582 
	C241.442047,94.647018 240.264053,94.598030 238.999023,94.301941 
	C238.999023,86.696167 239.038422,79.377815 238.986816,72.060097 
	C238.943787,65.956886 235.761261,62.195808 229.673538,62.159859 
	C225.923264,62.137714 222.164841,63.499237 218.127884,64.295151 
	C218.033066,64.146858 217.345871,62.251301 216.756790,62.281315 
	C212.180527,62.514442 207.623169,63.118793 203.059952,63.608326 
	C203.034912,64.066895 203.009888,64.525459 202.984848,64.984032 
	C204.513901,65.552834 206.042953,66.121635 207.695847,66.736504 
	C207.695847,75.988991 207.695847,85.243156 207.695847,93.297791 
	C205.663544,95.094391 204.394379,96.216370 203.125214,97.338348 
	C204.648956,97.892014 206.151871,98.841362 207.700485,98.922951 
	C211.852966,99.141747 216.025146,99.005562 220.189301,98.978317 
	C223.181610,98.958733 223.675781,97.622490 221.250015,95.061760 
M170.095245,88.943016 
	C172.741623,94.500153 176.735764,98.422722 183.139328,98.961273 
	C190.371552,99.569511 197.550034,98.786148 200.864410,91.309196 
	C202.638214,87.307678 202.686020,82.410896 202.917725,77.887657 
	C203.233963,71.714661 200.114120,66.932793 194.879868,64.085823 
	C189.255310,61.026577 183.159409,60.729786 177.424026,64.122429 
	C169.817856,68.621704 167.229401,77.294487 170.095245,88.943016 
M66.372284,62.294514 
	C59.885899,64.741821 55.796150,69.100822 54.361301,76.112305 
	C52.832546,83.582642 55.739082,92.876579 61.307419,96.645882 
	C66.220741,99.971771 76.779892,99.971519 81.692970,96.645393 
	C87.346062,92.818260 90.113869,84.054970 88.152611,76.193077 
	C85.419495,65.237068 80.200813,61.726185 66.372284,62.294514 
M91.498650,66.104736 
	C91.986900,66.854233 92.891060,67.598915 92.899803,68.353958 
	C92.999763,76.991745 92.963402,85.631096 92.963402,94.228905 
	C92.157570,94.560272 91.686172,94.681091 91.295250,94.928879 
	C90.218193,95.611588 89.174805,96.347435 88.118095,97.062263 
	C89.219849,97.705803 90.299408,98.855057 91.427231,98.904541 
	C96.084480,99.108902 100.759483,99.065681 105.419937,98.894539 
	C106.258698,98.863747 107.059578,97.801651 107.877945,97.215691 
	C107.205223,96.486900 106.638458,95.590736 105.828842,95.078209 
	C105.077133,94.602325 104.066238,94.535858 102.861015,94.204262 
	C103.996063,84.817680 100.486534,74.980110 107.556374,65.509712 
	C107.821037,67.451752 107.726303,68.194862 108.026329,68.706474 
	C109.252693,70.797668 110.341255,73.098373 112.065186,74.687866 
	C112.559631,75.143745 116.101685,73.741943 116.360512,72.716095 
	C116.973373,70.287109 117.307541,67.118553 116.215614,65.068604 
	C113.972260,60.856987 109.827072,60.887417 103.730133,64.237656 
	C102.929344,63.495148 102.149162,62.165363 101.410431,62.188000 
	C97.462410,62.308990 93.518288,62.713169 89.591515,63.177532 
	C89.090561,63.236771 88.698792,64.219383 88.256439,64.774231 
	C89.054619,65.187531 89.852806,65.600822 91.498650,66.104736 
M133.127533,49.445774 
	C130.179611,45.282997 124.734222,44.371826 122.752190,48.125725 
	C121.677521,50.161114 121.471504,53.973450 122.705780,55.548473 
	C124.007378,57.209396 127.751770,58.181648 129.958603,57.616890 
	C133.173813,56.794083 134.613663,53.710926 133.127533,49.445774 
M246.406616,96.727417 
	C248.657806,99.056015 251.444809,99.892960 253.666428,97.376373 
	C254.787201,96.106773 255.199142,93.069847 254.437943,91.611855 
	C253.722885,90.242264 250.933380,89.062645 249.248856,89.281166 
	C245.905853,89.714821 245.797531,92.703148 246.069565,95.484955 
	C246.085648,95.649323 246.105347,95.813339 246.406616,96.727417 
M356.462982,90.018867 
	C353.838562,88.258957 351.046051,88.386841 349.743958,91.162132 
	C348.957214,92.838982 349.240479,96.096703 350.417175,97.297440 
	C351.488098,98.390213 355.779663,98.424179 356.246307,97.585861 
	C357.297852,95.696983 356.860779,92.979385 356.462982,90.018867 
M440.184601,96.365952 
	C442.235291,98.790886 444.917328,100.147438 447.270355,97.548370 
	C448.510498,96.178535 449.013275,93.017006 448.282806,91.351219 
	C447.722168,90.072594 443.715332,88.763031 442.993744,89.412994 
	C441.414734,90.835312 440.949799,93.494423 440.184601,96.365952 
z"/>
<path fill="#03488D" opacity="1.000000" stroke="none" 
	d="
M455.600037,0.999998 
	C457.359650,7.213696 458.712463,13.428897 460.080414,19.640766 
	C462.381470,30.089544 461.097107,40.510384 458.525482,50.567814 
	C453.988281,68.312210 445.105865,83.709343 429.858765,94.462402 
	C421.024597,100.692741 422.290436,100.657555 414.453400,95.222588 
	C397.657379,83.574600 388.310608,67.205376 384.053345,47.648174 
	C381.054901,33.873741 381.332123,20.152527 385.996826,6.701854 
	C386.588074,4.996872 387.465088,3.390985 388.104858,1.369594 
	C388.750000,1.000000 389.500000,1.000000 390.535767,1.367054 
	C391.286255,2.168017 391.677795,2.762070 392.226257,3.012604 
	C409.358795,10.838395 426.919342,11.038857 444.657593,5.553293 
	C447.319824,4.729986 449.562988,2.551567 452.000000,1.000005 
	C453.066681,1.000000 454.133331,1.000000 455.600037,0.999998 
M390.432617,41.972923 
	C394.636017,62.210533 403.383728,79.550240 421.395538,90.968636 
	C446.269562,76.750252 461.606201,34.559025 450.020355,12.010998 
	C431.101624,18.650988 412.034363,18.587120 392.869995,11.912585 
	C388.793457,21.636234 388.955475,31.324806 390.432617,41.972923 
z"/>
<path fill="#000000" opacity="1.000000" stroke="none" 
	d="
M451.531342,1.000005 
	C449.562988,2.551567 447.319824,4.729986 444.657593,5.553293 
	C426.919342,11.038857 409.358795,10.838395 392.226257,3.012604 
	C391.677795,2.762070 391.286255,2.168017 390.910767,1.367054 
	C411.020905,1.000000 431.041779,1.000000 451.531342,1.000005 
z"/>
<path fill="#00468C" opacity="1.000000" stroke="none" 
	d="
M239.000000,25.000101 
	C239.000000,37.809086 239.000000,50.118107 239.000000,63.288589 
	C163.698563,31.098635 85.779739,11.785057 4.980934,3.492694 
	C82.677147,3.492694 160.373367,3.492694 239.000000,3.492694 
	C239.000000,10.344028 239.000000,17.422085 239.000000,25.000101 
z"/>
<path fill="#02478D" opacity="1.000000" stroke="none" 
	d="
M356.999359,29.004002 
	C361.448395,29.004004 365.401398,29.004004 369.667328,29.004004 
	C369.667328,43.463249 369.667328,57.353214 369.667328,71.818085 
	C361.299988,71.818085 353.062866,71.818085 344.260254,71.818085 
	C344.260254,80.938232 344.260254,89.508865 344.260254,98.535522 
	C329.686005,98.535522 315.678040,98.535522 301.092804,98.535522 
	C301.092804,89.874298 301.092804,81.303909 301.092804,72.171539 
	C291.972107,72.171539 283.397064,72.171539 274.420135,72.171539 
	C274.420135,57.717312 274.420135,43.825397 274.420135,29.180656 
	C282.971558,29.180656 291.669525,29.180656 300.917572,29.180656 
	C300.917572,20.211416 300.917572,11.971432 300.917572,3.375362 
	C315.375580,3.375362 329.266022,3.375362 343.732666,3.375362 
	C343.732666,11.609157 343.732666,19.850172 343.732666,29.004000 
	C348.356964,29.004000 352.430145,29.004000 356.999359,29.004002 
M308.781067,70.182144 
	C309.262207,71.463188 309.362915,73.355095 310.284424,73.928963 
	C317.884949,78.662056 329.310272,77.882561 336.693634,72.245750 
	C332.736450,66.327126 328.778625,60.387814 324.798676,54.463348 
	C322.867828,51.589100 321.218201,52.229443 319.547058,54.813931 
	C316.569641,59.418633 313.531250,63.986614 310.388214,68.478912 
	C309.858276,69.236290 308.675110,69.536613 307.662415,69.301971 
	C310.829132,63.278416 314.012177,57.263374 317.157928,51.228878 
	C320.223480,45.348171 319.204529,43.428226 312.769135,42.845440 
	C308.630707,42.470657 304.495575,41.902241 300.352509,41.838089 
	C299.228668,41.820690 297.329895,43.124264 297.061798,44.153614 
	C294.557922,53.767487 296.920288,62.244648 303.894226,69.287621 
	C304.672058,70.073135 306.525909,69.793167 308.781067,70.182144 
M325.173035,31.089186 
	C324.720673,32.315224 324.229309,33.528522 323.823578,34.769802 
	C322.811401,37.866325 323.956329,39.758274 327.199463,39.833698 
	C333.275482,39.975010 339.357178,39.874367 345.612244,39.874367 
	C342.086182,30.609074 332.441132,24.375376 322.301666,24.435913 
	C311.916321,24.497919 302.155151,30.836609 299.129211,39.883308 
	C304.870117,39.883308 310.453979,39.946766 316.035675,39.864639 
	C321.144592,39.789463 321.917969,38.302002 320.156769,33.333527 
	C319.710449,32.074318 320.390442,30.415850 320.552887,28.940838 
	C322.036804,29.371172 323.520752,29.801504 325.173035,31.089186 
M348.529388,52.200809 
	C348.100403,48.678146 347.671387,45.155487 347.215332,41.410671 
	C340.929504,41.988159 335.490295,42.404110 330.072937,43.013966 
	C326.234680,43.446056 324.800934,45.761185 326.554077,49.284397 
	C330.232849,56.677471 334.242828,63.905724 338.265472,71.481522 
	C344.537048,66.557800 347.696472,60.472931 348.529388,52.200809 
z"/>
<path fill="#00468C" opacity="1.000000" stroke="none" 
	d="
M50.000008,87.884521 
	C50.000019,90.337166 50.000019,92.305984 50.000019,93.695854 
	C50.577229,94.397255 50.661419,94.550949 50.789043,94.646835 
	C52.356796,95.824707 56.594666,93.519447 55.480858,97.510521 
	C55.172581,98.615173 50.637554,98.776573 48.014782,98.941872 
	C44.363171,99.172012 40.675243,99.159508 37.025665,98.913094 
	C35.691563,98.823029 34.422672,97.767212 33.124035,97.151962 
	C34.321396,96.421608 35.497616,95.652412 36.727917,94.982552 
	C37.142536,94.756798 37.694424,94.783165 38.588882,94.620674 
	C38.588882,88.099907 38.588882,81.521294 38.588882,74.468140 
	C33.029938,74.468140 27.344074,74.468140 21.323612,74.468140 
	C21.323612,81.155014 21.323612,87.728111 21.323612,94.497704 
	C22.058931,94.671234 22.735863,94.698555 23.275164,94.985001 
	C24.511097,95.641426 25.679857,96.424324 26.875891,97.155876 
	C25.575972,97.769821 24.295996,98.857719 22.972588,98.913399 
	C17.982111,99.123360 12.972029,99.125320 7.981899,98.911209 
	C6.672325,98.855019 5.408210,97.739334 4.123219,97.110207 
	C5.334720,96.392563 6.526471,95.637726 7.768729,94.977989 
	C8.187901,94.755371 8.735147,94.773911 9.608868,94.610008 
	C9.608868,79.940651 9.608868,65.229240 9.608868,50.613426 
	C7.584540,50.043941 5.801881,49.542439 4.019223,49.040939 
	C4.097412,48.548500 4.175601,48.056061 4.253789,47.563622 
	C11.695659,47.563622 19.137529,47.563622 26.579399,47.563622 
	C26.734915,47.973476 26.890430,48.383335 27.045948,48.793190 
	C25.275444,49.408039 23.504942,50.022888 21.314602,50.783539 
	C21.314602,57.086891 21.314602,63.668221 21.314602,70.626053 
	C27.043875,70.626053 32.612846,70.626053 38.593822,70.626053 
	C38.593822,64.026985 38.593822,57.458344 38.593822,50.685474 
	C36.786346,50.130856 34.876110,49.544708 32.965878,48.958561 
	C33.074013,48.499447 33.182148,48.040333 33.290287,47.581219 
	C40.772121,47.581219 48.253960,47.581219 55.735794,47.581219 
	C55.831966,48.077705 55.928143,48.574196 56.024315,49.070683 
	C54.218159,49.557022 52.412003,50.043362 50.000000,50.692837 
	C50.000000,62.825096 50.000000,75.112900 50.000008,87.884521 
z"/>
<path fill="#00468C" opacity="1.000000" stroke="none" 
	d="
M122.998344,70.283783 
	C124.551353,65.329094 118.801270,66.882179 117.888237,63.506882 
	C122.810539,63.066261 127.423477,62.653336 132.755676,62.176022 
	C132.755676,72.978928 132.755676,83.682220 132.755676,94.302231 
	C135.085266,94.904694 136.754486,95.336372 138.899033,95.890976 
	C144.037323,86.539520 149.414078,76.754105 154.985367,66.614624 
	C151.301041,65.363823 148.171768,65.899849 145.938599,68.699280 
	C144.173279,70.912216 143.057755,73.643501 141.653656,76.144585 
	C141.255463,76.000237 140.857254,75.855896 140.459045,75.711548 
	C140.459045,71.714409 140.459045,67.717262 140.459045,63.356224 
	C149.422958,63.356224 158.341812,63.356224 168.327988,63.356224 
	C162.607162,73.892906 157.097031,84.041512 151.432495,94.474487 
	C160.550293,96.656898 163.406143,90.690041 165.242645,83.283234 
	C165.654037,83.611740 166.065414,83.940247 166.476807,84.268761 
	C166.476807,88.914070 166.476807,93.559380 166.476807,98.999931 
	C164.635132,98.999931 162.709030,98.999954 160.782928,98.999931 
	C148.122406,98.999786 135.461365,99.053322 122.802025,98.930733 
	C121.239342,98.915604 119.685745,97.961678 118.127937,97.442780 
	C119.353943,96.296089 120.579956,95.149399 121.805962,94.002708 
	C122.203789,94.200829 122.601624,94.398949 122.999451,94.597069 
	C122.999451,86.647247 122.999451,78.697418 122.998344,70.283783 
z"/>
<path fill="#00468C" opacity="1.000000" stroke="none" 
	d="
M221.665070,95.156235 
	C223.675781,97.622490 223.181610,98.958733 220.189301,98.978317 
	C216.025146,99.005562 211.852966,99.141747 207.700485,98.922951 
	C206.151871,98.841362 204.648956,97.892014 203.125214,97.338348 
	C204.394379,96.216370 205.663544,95.094391 207.695847,93.297791 
	C207.695847,85.243156 207.695847,75.988991 207.695847,66.736504 
	C206.042953,66.121635 204.513901,65.552834 202.984848,64.984032 
	C203.009888,64.525459 203.034912,64.066895 203.059952,63.608326 
	C207.623169,63.118793 212.180527,62.514442 216.756790,62.281315 
	C217.345871,62.251301 218.033066,64.146858 218.127884,64.295151 
	C222.164841,63.499237 225.923264,62.137714 229.673538,62.159859 
	C235.761261,62.195808 238.943787,65.956886 238.986816,72.060097 
	C239.038422,79.377815 238.999023,86.696167 238.999023,94.301941 
	C240.264053,94.598030 241.442047,94.647018 242.357178,95.162582 
	C243.039841,95.547203 243.834763,96.594498 243.749908,97.237152 
	C243.665024,97.880142 242.562073,98.860191 241.883881,98.878082 
	C236.891479,99.009743 231.892624,98.983826 226.899033,98.867859 
	C226.301697,98.853981 225.236618,97.992584 225.244247,97.538406 
	C225.257721,96.735725 225.884506,95.917259 226.336121,95.153633 
	C227.192993,93.704857 228.804016,92.324287 228.876022,90.855293 
	C229.169312,84.873016 229.314529,78.842712 228.837753,72.884239 
	C228.656067,70.613335 226.655090,68.488007 225.483246,66.296341 
	C223.347427,67.898552 220.164536,69.082909 219.319565,71.200249 
	C218.030746,74.429916 218.228775,78.297882 218.038086,81.907639 
	C217.862610,85.229622 217.728561,88.605194 218.159393,91.880455 
	C218.314026,93.056061 220.170334,94.007828 221.665070,95.156235 
z"/>
<path fill="#00468C" opacity="1.000000" stroke="none" 
	d="
M170.051880,88.538597 
	C167.229401,77.294487 169.817856,68.621704 177.424026,64.122429 
	C183.159409,60.729786 189.255310,61.026577 194.879868,64.085823 
	C200.114120,66.932793 203.233963,71.714661 202.917725,77.887657 
	C202.686020,82.410896 202.638214,87.307678 200.864410,91.309196 
	C197.550034,98.786148 190.371552,99.569511 183.139328,98.961273 
	C176.735764,98.422722 172.741623,94.500153 170.051880,88.538597 
M191.999725,74.793686 
	C191.599976,72.718338 191.688980,70.344940 190.658112,68.654457 
	C189.695602,67.076035 187.585175,65.385674 185.903015,65.302567 
	C184.429489,65.229774 181.583923,67.254677 181.520874,68.466255 
	C181.106277,76.430847 181.036163,84.440804 181.511398,92.396660 
	C181.588593,93.688988 184.979095,95.760216 186.755920,95.678749 
	C188.299530,95.607964 190.758469,93.157158 191.013565,91.483841 
	C191.803497,86.302467 191.735168,80.990250 191.999725,74.793686 
z"/>
<path fill="#00468C" opacity="1.000000" stroke="none" 
	d="
M66.780106,62.191772 
	C80.200813,61.726185 85.419495,65.237068 88.152611,76.193077 
	C90.113869,84.054970 87.346062,92.818260 81.692970,96.645393 
	C76.779892,99.971519 66.220741,99.971771 61.307419,96.645882 
	C55.739082,92.876579 52.832546,83.582642 54.361301,76.112305 
	C55.796150,69.100822 59.885899,64.741821 66.780106,62.191772 
M77.013962,88.388023 
	C76.980766,82.346031 77.365829,76.255386 76.671837,70.290268 
	C76.449631,68.380325 73.575897,65.839249 71.530479,65.406693 
	C70.133904,65.111359 66.722694,67.820724 66.540466,69.447502 
	C65.798859,76.067673 65.807411,82.789177 65.839386,89.471886 
	C65.857056,93.165588 67.624123,96.069305 71.771767,95.896507 
	C75.748650,95.730812 76.563133,92.497765 77.013962,88.388023 
z"/>
<path fill="#00468C" opacity="1.000000" stroke="none" 
	d="
M91.074814,66.059433 
	C89.852806,65.600822 89.054619,65.187531 88.256439,64.774231 
	C88.698792,64.219383 89.090561,63.236771 89.591515,63.177532 
	C93.518288,62.713169 97.462410,62.308990 101.410431,62.188000 
	C102.149162,62.165363 102.929344,63.495148 103.730133,64.237656 
	C109.827072,60.887417 113.972260,60.856987 116.215614,65.068604 
	C117.307541,67.118553 116.973373,70.287109 116.360512,72.716095 
	C116.101685,73.741943 112.559631,75.143745 112.065186,74.687866 
	C110.341255,73.098373 109.252693,70.797668 108.026329,68.706474 
	C107.726303,68.194862 107.821037,67.451752 107.556374,65.509712 
	C100.486534,74.980110 103.996063,84.817680 102.861015,94.204262 
	C104.066238,94.535858 105.077133,94.602325 105.828842,95.078209 
	C106.638458,95.590736 107.205223,96.486900 107.877945,97.215698 
	C107.059578,97.801651 106.258698,98.863747 105.419937,98.894539 
	C100.759483,99.065681 96.084480,99.108902 91.427231,98.904541 
	C90.299408,98.855057 89.219849,97.705803 88.118095,97.062271 
	C89.174805,96.347435 90.218193,95.611588 91.295250,94.928879 
	C91.686172,94.681091 92.157570,94.560272 92.963402,94.228905 
	C92.963402,85.631096 92.999763,76.991745 92.899803,68.353958 
	C92.891060,67.598915 91.986900,66.854233 91.074814,66.059433 
z"/>
<path fill="#00468C" opacity="1.000000" stroke="none" 
	d="
M133.338776,49.776390 
	C134.613663,53.710926 133.173813,56.794083 129.958603,57.616890 
	C127.751770,58.181648 124.007378,57.209396 122.705780,55.548473 
	C121.471504,53.973450 121.677521,50.161114 122.752190,48.125725 
	C124.734222,44.371826 130.179611,45.282997 133.338776,49.776390 
z"/>
<path fill="#00468C" opacity="1.000000" stroke="none" 
	d="
M246.264984,96.352463 
	C246.105347,95.813339 246.085648,95.649323 246.069565,95.484955 
	C245.797531,92.703148 245.905853,89.714821 249.248856,89.281166 
	C250.933380,89.062645 253.722885,90.242264 254.437943,91.611855 
	C255.199142,93.069847 254.787201,96.106773 253.666428,97.376373 
	C251.444809,99.892960 248.657806,99.056015 246.264984,96.352463 
z"/>
<path fill="#00468C" opacity="1.000000" stroke="none" 
	d="
M356.746216,90.308929 
	C356.860779,92.979385 357.297852,95.696983 356.246307,97.585861 
	C355.779663,98.424179 351.488098,98.390213 350.417175,97.297440 
	C349.240479,96.096703 348.957214,92.838982 349.743958,91.162132 
	C351.046051,88.386841 353.838562,88.258957 356.746216,90.308929 
z"/>
<path fill="#00468C" opacity="1.000000" stroke="none" 
	d="
M440.107208,96.007172 
	C440.949799,93.494423 441.414734,90.835312 442.993744,89.412994 
	C443.715332,88.763031 447.722168,90.072594 448.282806,91.351219 
	C449.013275,93.017006 448.510498,96.178535 447.270355,97.548370 
	C444.917328,100.147438 442.235291,98.790886 440.107208,96.007172 
z"/>
<path fill="#EBF1F6" opacity="1.000000" stroke="none" 
	d="
M390.339661,41.546398 
	C388.955475,31.324806 388.793457,21.636234 392.869995,11.912585 
	C412.034363,18.587120 431.101624,18.650988 450.020355,12.010998 
	C461.606201,34.559025 446.269562,76.750252 421.395538,90.968636 
	C403.383728,79.550240 394.636017,62.210533 390.339661,41.546398 
M436.663391,19.131628 
	C422.831696,21.789423 409.202637,20.366640 395.388092,16.739239 
	C394.884094,18.566593 394.240509,20.111431 394.049561,21.710323 
	C391.120758,46.233070 399.041443,66.777817 416.726654,83.826309 
	C420.358368,87.327248 423.103241,87.028580 426.705994,83.662399 
	C441.178833,70.140007 448.644623,53.384884 449.842407,33.850670 
	C450.186096,28.245810 449.063965,22.551065 448.597473,16.690844 
	C444.015259,17.658243 440.769562,18.343479 436.663391,19.131628 
z"/>
<path fill="#EAF0F5" opacity="1.000000" stroke="none" 
	d="
M325.088867,30.660511 
	C323.520752,29.801504 322.036804,29.371172 320.552887,28.940840 
	C320.390442,30.415850 319.710449,32.074318 320.156769,33.333527 
	C321.917969,38.302002 321.144592,39.789463 316.035675,39.864639 
	C310.453979,39.946766 304.870117,39.883308 299.129211,39.883308 
	C302.155151,30.836609 311.916321,24.497919 322.301666,24.435913 
	C332.441132,24.375376 342.086182,30.609074 345.612244,39.874367 
	C339.357178,39.874367 333.275482,39.975010 327.199463,39.833698 
	C323.956329,39.758274 322.811401,37.866325 323.823578,34.769802 
	C324.229309,33.528522 324.720673,32.315224 325.088867,30.660511 
M312.417023,36.149517 
	C313.841370,36.085556 315.265717,36.021599 316.634918,35.960114 
	C316.233978,33.633930 315.880066,31.580603 315.390533,28.740501 
	C312.101501,30.856695 308.979004,32.865757 305.856476,34.874813 
	C306.022308,35.299725 306.188141,35.724636 306.353973,36.149548 
	C308.082825,36.149548 309.811676,36.149548 312.417023,36.149517 
M329.009888,30.669247 
	C328.696625,32.371082 328.383392,34.072918 328.051941,35.873573 
	C331.560852,35.873573 334.907288,35.873573 338.253693,35.873573 
	C338.446716,35.424034 338.639740,34.974491 338.832733,34.524952 
	C335.650116,32.971581 332.467468,31.418213 329.009888,30.669247 
z"/>
<path fill="#EAF0F6" opacity="1.000000" stroke="none" 
	d="
M307.880737,70.007324 
	C306.525909,69.793167 304.672058,70.073135 303.894226,69.287621 
	C296.920288,62.244648 294.557922,53.767487 297.061798,44.153614 
	C297.329895,43.124264 299.228668,41.820690 300.352509,41.838089 
	C304.495575,41.902241 308.630707,42.470657 312.769135,42.845440 
	C319.204529,43.428226 320.223480,45.348171 317.157928,51.228878 
	C314.012177,57.263374 310.829132,63.278416 307.752930,69.670547 
	C307.843445,70.039116 307.880737,70.007324 307.880737,70.007324 
M299.868805,50.359859 
	C299.780823,55.934284 301.099335,60.945343 305.509155,65.314018 
	C308.759460,58.963455 311.730957,53.157623 315.046112,46.680336 
	C310.821838,46.295849 307.485535,46.272411 304.275452,45.623989 
	C300.819977,44.926003 299.668365,46.214188 299.868805,50.359859 
z"/>
<path fill="#ECF1F7" opacity="1.000000" stroke="none" 
	d="
M348.444641,52.607140 
	C347.696472,60.472931 344.537048,66.557800 338.265472,71.481522 
	C334.242828,63.905724 330.232849,56.677471 326.554077,49.284397 
	C324.800934,45.761185 326.234680,43.446056 330.072937,43.013966 
	C335.490295,42.404110 340.929504,41.988159 347.215332,41.410671 
	C347.671387,45.155487 348.100403,48.678146 348.444641,52.607140 
M331.597107,50.827766 
	C334.095703,55.603565 336.594269,60.379368 339.336639,65.621109 
	C344.126495,59.121986 346.060516,52.840355 343.928284,45.330963 
	C339.046906,45.815666 334.561005,46.261105 329.628479,46.750893 
	C330.388062,48.400402 330.795349,49.284878 331.597107,50.827766 
z"/>
<path fill="#EBF0F6" opacity="1.000000" stroke="none" 
	d="
M307.818604,70.043610 
	C308.675110,69.536613 309.858276,69.236290 310.388214,68.478912 
	C313.531250,63.986614 316.569641,59.418633 319.547058,54.813931 
	C321.218201,52.229443 322.867828,51.589100 324.798676,54.463348 
	C328.778625,60.387814 332.736450,66.327126 336.693634,72.245750 
	C329.310272,77.882561 317.884949,78.662056 310.284424,73.928963 
	C309.362915,73.355095 309.262207,71.463188 308.330902,70.094734 
	C307.880737,70.007324 307.843445,70.039116 307.818604,70.043610 
M326.755249,63.799244 
	C325.379883,61.780899 324.004547,59.762550 322.214569,57.135773 
	C318.993134,62.083656 316.090637,66.541641 312.946045,71.371529 
	C319.622742,73.661552 325.365875,73.987206 331.511810,71.170380 
	C329.818909,68.568939 328.470825,66.497337 326.755249,63.799244 
z"/>
<path fill="#000000" opacity="1.000000" stroke="none" 
	d="
M191.999863,75.261253 
	C191.735168,80.990250 191.803497,86.302467 191.013565,91.483841 
	C190.758469,93.157158 188.299530,95.607964 186.755920,95.678749 
	C184.979095,95.760216 181.588593,93.688988 181.511398,92.396660 
	C181.036163,84.440804 181.106277,76.430847 181.520874,68.466255 
	C181.583923,67.254677 184.429489,65.229774 185.903015,65.302567 
	C187.585175,65.385674 189.695602,67.076035 190.658112,68.654457 
	C191.688980,70.344940 191.599976,72.718338 191.999863,75.261253 
z"/>
<path fill="#000000" opacity="1.000000" stroke="none" 
	d="
M77.005394,88.813858 
	C76.563133,92.497765 75.748650,95.730812 71.771767,95.896507 
	C67.624123,96.069305 65.857056,93.165588 65.839386,89.471886 
	C65.807411,82.789177 65.798859,76.067673 66.540466,69.447502 
	C66.722694,67.820724 70.133904,65.111359 71.530479,65.406693 
	C73.575897,65.839249 76.449631,68.380325 76.671837,70.290268 
	C77.365829,76.255386 76.980766,82.346031 77.005394,88.813858 
z"/>
<path fill="#05498E" opacity="1.000000" stroke="none" 
	d="
M437.093628,19.080173 
	C440.769562,18.343479 444.015259,17.658243 448.597473,16.690844 
	C449.063965,22.551065 450.186096,28.245810 449.842407,33.850670 
	C448.644623,53.384884 441.178833,70.140007 426.705994,83.662399 
	C423.103241,87.028580 420.358368,87.327248 416.726654,83.826309 
	C399.041443,66.777817 391.120758,46.233070 394.049561,21.710323 
	C394.240509,20.111431 394.884094,18.566593 395.388092,16.739239 
	C409.202637,20.366640 422.831696,21.789423 437.093628,19.080173 
M423.034363,65.317688 
	C423.067322,64.896515 423.100281,64.475342 423.931549,64.004700 
	C427.260071,64.136673 430.139709,63.140778 430.314911,59.428383 
	C430.498474,55.538361 427.747101,54.058552 424.059113,53.310368 
	C424.083527,52.891399 424.107941,52.472427 424.712219,51.815437 
	C428.002075,51.131516 431.489502,50.699711 432.120422,46.399483 
	C432.905487,41.048454 429.063721,39.295589 424.817383,37.694653 
	C427.294586,35.434025 429.589996,33.512562 431.645264,31.361694 
	C432.290070,30.686930 432.289093,29.395088 432.583740,28.385700 
	C431.439514,28.243755 430.221375,27.794367 429.171936,28.046646 
	C428.129974,28.297125 427.257751,29.253689 425.980103,30.126801 
	C425.704376,28.756414 425.849915,27.270172 425.190643,26.674105 
	C423.911255,25.517397 422.195953,24.825106 420.591339,24.093781 
	C420.502869,24.053463 419.777496,25.410641 418.645569,26.253897 
	C418.454926,26.672256 418.264282,27.090616 417.315887,27.393339 
	C414.081909,25.449156 410.640930,26.260748 409.294525,29.107088 
	C408.090729,31.651855 407.701477,36.174969 409.189941,38.034119 
	C411.537354,40.966194 415.758423,42.398243 419.124695,44.428059 
	C418.722015,45.019283 417.855835,46.700684 416.615936,48.034790 
	C412.830353,52.108021 413.811554,55.594513 419.696777,57.752861 
	C420.143890,58.163818 420.590973,58.574780 420.848450,59.684277 
	C414.368896,63.310383 414.329071,64.176712 419.865723,69.144928 
	C420.637543,69.837524 421.275574,72.040108 420.860229,72.472603 
	C418.288116,75.150894 420.645020,77.509392 421.056000,79.943703 
	C421.191956,80.749115 421.907349,81.456688 422.357849,82.209015 
	C422.903290,81.390701 423.877533,80.590698 423.913391,79.750626 
	C424.018829,77.280266 423.622528,74.887222 426.996887,74.005325 
	C427.612427,73.844452 428.330536,70.953079 427.784271,70.125084 
	C426.673676,68.441765 424.732147,67.306641 423.034363,65.317688 
z"/>
<path fill="#0F5193" opacity="1.000000" stroke="none" 
	d="
M311.978760,36.149532 
	C309.811676,36.149548 308.082825,36.149548 306.353973,36.149548 
	C306.188141,35.724636 306.022308,35.299725 305.856476,34.874813 
	C308.979004,32.865757 312.101501,30.856695 315.390533,28.740501 
	C315.880066,31.580603 316.233978,33.633930 316.634918,35.960114 
	C315.265717,36.021599 313.841370,36.085556 311.978760,36.149532 
z"/>
<path fill="#0C4F91" opacity="1.000000" stroke="none" 
	d="
M329.147369,30.267044 
	C332.467468,31.418213 335.650116,32.971581 338.832733,34.524952 
	C338.639740,34.974491 338.446716,35.424034 338.253693,35.873573 
	C334.907288,35.873573 331.560852,35.873573 328.051941,35.873573 
	C328.383392,34.072918 328.696625,32.371082 329.147369,30.267044 
z"/>
<path fill="#084C90" opacity="1.000000" stroke="none" 
	d="
M299.873779,49.890778 
	C299.668365,46.214188 300.819977,44.926003 304.275452,45.623989 
	C307.485535,46.272411 310.821838,46.295849 315.046112,46.680336 
	C311.730957,53.157623 308.759460,58.963455 305.509155,65.314018 
	C301.099335,60.945343 299.780823,55.934284 299.873779,49.890778 
z"/>
<path fill="#084C90" opacity="1.000000" stroke="none" 
	d="
M331.399902,50.498558 
	C330.795349,49.284878 330.388062,48.400402 329.628479,46.750893 
	C334.561005,46.261105 339.046906,45.815666 343.928284,45.330963 
	C346.060516,52.840355 344.126495,59.121986 339.336639,65.621109 
	C336.594269,60.379368 334.095703,55.603565 331.399902,50.498558 
z"/>
<path fill="#084C90" opacity="1.000000" stroke="none" 
	d="
M326.938995,64.112488 
	C328.470825,66.497337 329.818909,68.568939 331.511810,71.170380 
	C325.365875,73.987206 319.622742,73.661552 312.946045,71.371529 
	C316.090637,66.541641 318.993134,62.083656 322.214569,57.135773 
	C324.004547,59.762550 325.379883,61.780899 326.938995,64.112488 
z"/>
<path fill="#FBFCFD" opacity="1.000000" stroke="none" 
	d="
M419.336639,57.237640 
	C413.811554,55.594513 412.830353,52.108021 416.615936,48.034790 
	C417.855835,46.700684 418.722015,45.019283 419.124695,44.428059 
	C415.758423,42.398243 411.537354,40.966194 409.189941,38.034119 
	C407.701477,36.174969 408.090729,31.651855 409.294525,29.107088 
	C410.640930,26.260748 414.081909,25.449156 417.744629,27.699062 
	C418.659729,28.074297 419.146057,28.143810 419.632416,28.213326 
	C419.537781,27.514662 419.443176,26.815998 419.348572,26.117332 
	C419.777496,25.410641 420.502869,24.053463 420.591339,24.093781 
	C422.195953,24.825106 423.911255,25.517397 425.190643,26.674105 
	C425.849915,27.270172 425.704376,28.756414 425.980103,30.126801 
	C427.257751,29.253689 428.129974,28.297125 429.171936,28.046646 
	C430.221375,27.794367 431.439514,28.243755 432.583740,28.385696 
	C432.289093,29.395088 432.290070,30.686930 431.645264,31.361694 
	C429.589996,33.512562 427.294586,35.434025 424.817383,37.694653 
	C429.063721,39.295589 432.905487,41.048454 432.120422,46.399483 
	C431.489502,50.699711 428.002075,51.131516 424.032135,51.922848 
	C421.935059,52.114357 420.518097,52.198456 419.101105,52.282555 
	C419.123138,52.747292 419.145142,53.212029 419.167145,53.676762 
	C420.831512,53.762558 422.495880,53.848351 424.160248,53.934147 
	C427.747101,54.058552 430.498474,55.538361 430.314911,59.428383 
	C430.139709,63.140778 427.260071,64.136673 423.202942,64.023544 
	C421.674042,64.208916 420.873749,64.375435 420.073425,64.541954 
	C420.081390,64.801445 420.089325,65.060936 420.097290,65.320427 
	C421.109192,65.528816 422.121124,65.737213 423.133026,65.945602 
	C424.732147,67.306641 426.673676,68.441765 427.784271,70.125084 
	C428.330536,70.953079 427.612427,73.844452 426.996887,74.005325 
	C423.622528,74.887222 424.018829,77.280266 423.913391,79.750626 
	C423.877533,80.590698 422.903290,81.390701 422.357849,82.209007 
	C421.907349,81.456688 421.191956,80.749115 421.056000,79.943703 
	C420.645020,77.509392 418.288116,75.150894 420.860229,72.472603 
	C421.275574,72.040108 420.637543,69.837524 419.865723,69.144928 
	C414.329071,64.176712 414.368896,63.310383 421.090240,59.094574 
	C420.666901,58.082458 420.001770,57.660049 419.336639,57.237640 
M422.840485,30.321459 
	C421.139679,30.184557 419.438904,30.047655 416.532806,29.813734 
	C418.321960,31.818573 419.127045,32.720699 420.278717,34.011211 
	C421.190002,32.948341 422.064209,31.928703 422.840485,30.321459 
M413.047546,35.456062 
	C413.995239,35.317791 414.942932,35.179520 415.890625,35.041245 
	C415.425171,34.125763 414.959747,33.210278 414.494293,32.294788 
	C413.889984,33.162388 413.285645,34.029987 413.047546,35.456062 
M417.659058,36.738438 
	C417.649628,36.996910 417.627594,37.256493 417.650055,37.512173 
	C417.652313,37.538097 417.922302,37.540527 418.068054,37.553860 
	C418.044495,37.298939 418.020935,37.044018 417.659058,36.738438 
z"/>
<path fill="#F1F5F9" opacity="1.000000" stroke="none" 
	d="
M424.109680,53.622257 
	C422.495880,53.848351 420.831512,53.762558 419.167145,53.676762 
	C419.145142,53.212029 419.123138,52.747292 419.101105,52.282555 
	C420.518097,52.198456 421.935059,52.114357 423.742218,52.041859 
	C424.107941,52.472427 424.083527,52.891399 424.109680,53.622257 
z"/>
<path fill="#F1F5F9" opacity="1.000000" stroke="none" 
	d="
M423.083679,65.631653 
	C422.121124,65.737213 421.109192,65.528816 420.097290,65.320427 
	C420.089325,65.060936 420.081390,64.801445 420.073425,64.541954 
	C420.873749,64.375435 421.674042,64.208916 422.803802,64.048279 
	C423.100281,64.475342 423.067322,64.896515 423.083679,65.631653 
z"/>
<path fill="#E6EDF4" opacity="1.000000" stroke="none" 
	d="
M418.997070,26.185616 
	C419.443176,26.815998 419.537781,27.514662 419.632416,28.213326 
	C419.146057,28.143810 418.659729,28.074297 418.123505,27.756878 
	C418.264282,27.090616 418.454926,26.672256 418.997070,26.185616 
z"/>
<path fill="#F1F5F9" opacity="1.000000" stroke="none" 
	d="
M419.516724,57.495251 
	C420.001770,57.660049 420.666901,58.082458 421.185059,58.745300 
	C420.590973,58.574780 420.143890,58.163818 419.516724,57.495251 
z"/>
<path fill="#E6EDF4" opacity="1.000000" stroke="none" 
	d="
M422.889465,30.615263 
	C422.064209,31.928703 421.190002,32.948341 420.278717,34.011211 
	C419.127045,32.720699 418.321960,31.818573 416.532806,29.813734 
	C419.438904,30.047655 421.139679,30.184557 422.889465,30.615263 
z"/>
<path fill="#F2F6F9" opacity="1.000000" stroke="none" 
	d="
M412.864441,35.176826 
	C413.285645,34.029987 413.889984,33.162388 414.494293,32.294792 
	C414.959747,33.210278 415.425171,34.125763 415.890625,35.041245 
	C414.942932,35.179520 413.995239,35.317791 412.864441,35.176826 
z"/>
<path fill="#E6EDF4" opacity="1.000000" stroke="none" 
	d="
M417.828186,36.763771 
	C418.020935,37.044018 418.044495,37.298939 418.068054,37.553864 
	C417.922302,37.540527 417.652313,37.538097 417.650055,37.512173 
	C417.627594,37.256493 417.649628,36.996910 417.828186,36.763771 
z"/>
</svg>